<svg xmlns="http://www.w3.org/2000/svg" viewBox="0 0 1154 963" width="1154" height="963" preserveAspectRatio="xMidYMid meet" style="width: 100%; height: 100%;"><defs><clipPath id="__lottie_element_1493"><rect width="1154" height="963" x="0" y="0"></rect></clipPath><linearGradient id="__lottie_element_1497" spreadMethod="pad" gradientUnits="userSpaceOnUse" x1="-77" y1="-52" x2="437" y2="53"><stop offset="0%" stop-color="rgb(230,165,254)"></stop><stop offset="50%" stop-color="rgb(221,134,253)"></stop><stop offset="100%" stop-color="rgb(211,102,253)"></stop></linearGradient><linearGradient id="__lottie_element_1499" spreadMethod="pad" gradientUnits="userSpaceOnUse" x1="-77" y1="-52" x2="437" y2="53"><stop offset="0%" stop-color="rgb(39,23,178)"></stop><stop offset="50%" stop-color="rgb(123,60,215)"></stop><stop offset="100%" stop-color="rgb(207,98,252)"></stop></linearGradient><linearGradient id="__lottie_element_1503" spreadMethod="pad" gradientUnits="userSpaceOnUse" x1="-77" y1="-52" x2="437" y2="53"><stop offset="0%" stop-color="rgb(230,165,254)"></stop><stop offset="50%" stop-color="rgb(221,134,253)"></stop><stop offset="100%" stop-color="rgb(211,102,253)"></stop></linearGradient><linearGradient id="__lottie_element_1505" spreadMethod="pad" gradientUnits="userSpaceOnUse" x1="-77" y1="-52" x2="437" y2="53"><stop offset="0%" stop-color="rgb(39,23,178)"></stop><stop offset="50%" stop-color="rgb(123,60,215)"></stop><stop offset="100%" stop-color="rgb(207,98,252)"></stop></linearGradient><linearGradient id="__lottie_element_1508" spreadMethod="pad" gradientUnits="userSpaceOnUse" x1="-77" y1="-52" x2="437" y2="53"><stop offset="0%" stop-color="rgb(29,18,173)"></stop><stop offset="50%" stop-color="rgb(70,43,187)"></stop><stop offset="100%" stop-color="rgb(112,67,202)"></stop></linearGradient><linearGradient id="__lottie_element_1511" spreadMethod="pad" gradientUnits="userSpaceOnUse" x1="-77" y1="-52" x2="437" y2="53"><stop offset="0%" stop-color="rgb(29,18,173)"></stop><stop offset="50%" stop-color="rgb(70,43,187)"></stop><stop offset="100%" stop-color="rgb(112,67,202)"></stop></linearGradient><linearGradient id="__lottie_element_1514" spreadMethod="pad" gradientUnits="userSpaceOnUse" x1="-77" y1="-52" x2="437" y2="53"><stop offset="0%" stop-color="rgb(29,18,173)"></stop><stop offset="50%" stop-color="rgb(70,43,187)"></stop><stop offset="100%" stop-color="rgb(112,67,202)"></stop></linearGradient><linearGradient id="__lottie_element_1517" spreadMethod="pad" gradientUnits="userSpaceOnUse" x1="-77" y1="-52" x2="437" y2="53"><stop offset="0%" stop-color="rgb(230,165,254)"></stop><stop offset="50%" stop-color="rgb(221,134,253)"></stop><stop offset="100%" stop-color="rgb(211,102,253)"></stop></linearGradient></defs><g clip-path="url(#__lottie_element_1493)"><g transform="matrix(0.44000354409217834,0,0,0.44000354409217834,704.7593994140625,552.0595092773438)" opacity="1" style="display: block;"><path fill="url(#__lottie_element_1503)" fill-opacity="1" d=" M171,-188.5 C351.47,-188.5 498,-41.97 498,138.5 C498,318.97 351.47,465.5 171,465.5 C-9.47,465.5 -156,318.97 -156,138.5 C-156,-41.97 -9.47,-188.5 171,-188.5z"></path><g opacity="1" transform="matrix(1,0,0,1,171,138.5)"></g></g><g transform="matrix(0.6058675646781921,0,0,0.6058675646781921,109.39664459228516,673.0873413085938)" opacity="1" style="display: block;"><path fill="url(#__lottie_element_1497)" fill-opacity="1" d=" M171,-188.5 C351.47,-188.5 498,-41.97 498,138.5 C498,318.97 351.47,465.5 171,465.5 C-9.47,465.5 -156,318.97 -156,138.5 C-156,-41.97 -9.47,-188.5 171,-188.5z"></path><g opacity="1" transform="matrix(1,0,0,1,171,138.5)"></g></g><g transform="matrix(0.6508479714393616,-0.27626699209213257,0.2724589407444,0.6418766975402832,545.2044677734375,206.24449157714844)" opacity="1" style="display: block;"><path fill="url(#__lottie_element_1517)" fill-opacity="1" d=" M171,-188.5 C351.47,-188.5 498,-41.97 498,138.5 C498,318.97 351.47,465.5 171,465.5 C-9.47,465.5 -156,318.97 -156,138.5 C-156,-41.97 -9.47,-188.5 171,-188.5z"></path><g opacity="1" transform="matrix(1,0,0,1,171,138.5)"></g></g><g transform="matrix(0.5590925812721252,0.22588615119457245,-0.22588615119457245,0.5590925812721252,217.1490936279297,254.2845001220703)" opacity="1" style="display: block;"><path fill="url(#__lottie_element_1514)" fill-opacity="1" d=" M171,-188.5 C351.47,-188.5 498,-41.97 498,138.5 C498,318.97 351.47,465.5 171,465.5 C-9.47,465.5 -156,318.97 -156,138.5 C-156,-41.97 -9.47,-188.5 171,-188.5z"></path><g opacity="1" transform="matrix(1,0,0,1,171,138.5)"></g></g><g transform="matrix(0.22416916489601135,0.0642794668674469,-0.06316226720809937,0.22027301788330078,424.1165466308594,841.837158203125)" opacity="1" style="display: block;"><path fill="url(#__lottie_element_1511)" fill-opacity="1" d=" M171,-188.5 C351.47,-188.5 498,-41.97 498,138.5 C498,318.97 351.47,465.5 171,465.5 C-9.47,465.5 -156,318.97 -156,138.5 C-156,-41.97 -9.47,-188.5 171,-188.5z"></path><g opacity="1" transform="matrix(1,0,0,1,171,138.5)"></g></g><g transform="matrix(0.3186294734477997,0.2868952751159668,-0.2868952751159668,0.3186294734477997,970.4514770507812,715.7067260742188)" opacity="1" style="display: block;"><path fill="url(#__lottie_element_1508)" fill-opacity="1" d=" M171,-188.5 C351.47,-188.5 498,-41.97 498,138.5 C498,318.97 351.47,465.5 171,465.5 C-9.47,465.5 -156,318.97 -156,138.5 C-156,-41.97 -9.47,-188.5 171,-188.5z"></path><g opacity="1" transform="matrix(1,0,0,1,171,138.5)"></g></g><g transform="matrix(0.38258641958236694,-0.19493921101093292,0.19493921101093292,0.38258641958236694,916.566162109375,428.48712158203125)" opacity="1" style="display: block;"><path fill="url(#__lottie_element_1505)" fill-opacity="1" d=" M171,-188.5 C351.47,-188.5 498,-41.97 498,138.5 C498,318.97 351.47,465.5 171,465.5 C-9.47,465.5 -156,318.97 -156,138.5 C-156,-41.97 -9.47,-188.5 171,-188.5z"></path><g opacity="1" transform="matrix(1,0,0,1,171,138.5)"></g></g><g transform="matrix(0.10193989425897598,0.35551178455352783,-0.35551178455352783,0.10193989425897598,558.84326171875,629.0516357421875)" opacity="1" style="display: block;"><path fill="url(#__lottie_element_1499)" fill-opacity="1" d=" M171,-188.5 C351.47,-188.5 498,-41.97 498,138.5 C498,318.97 351.47,465.5 171,465.5 C-9.47,465.5 -156,318.97 -156,138.5 C-156,-41.97 -9.47,-188.5 171,-188.5z"></path><g opacity="1" transform="matrix(1,0,0,1,171,138.5)"></g></g></g></svg>